<?xml version="1.0" encoding="utf-8" ?>
<svg xmlns="http://www.w3.org/2000/svg" xmlns:xlink="http://www.w3.org/1999/xlink" width="49" height="69">
	<defs>
		<clipPath id="clip_0">
			<rect x="-210" y="-215" width="320" height="570" clip-rule="evenodd"/>
		</clipPath>
	</defs>
	<g clip-path="url(#clip_0)">
		<path fill="rgb(0,113,206)" stroke="none" transform="translate(7.21387 39.0961)" d="M33.2085 0.812437C33.2436 0.470458 33.5754 0.219241 33.9495 0.251327C34.3237 0.283414 34.5985 0.586654 34.5634 0.928633L34.1549 4.90806C33.5834 10.2583 30.7064 15.1037 26.1129 18.2814L23.812 19.7644C19.8954 22.414 14.5258 22.414 10.7461 19.7587L8.43509 18.1447C3.86007 14.9794 0.983081 10.134 0.411107 4.77969L0.00284267 0.678319C-0.0312079 0.336251 0.244579 0.0337207 0.61883 0.00259822C0.993081 -0.0285243 1.32407 0.223547 1.35812 0.565615L1.76597 4.6629C2.3012 9.67318 4.98953 14.2009 9.25889 17.1547L11.5739 18.7714C14.8693 21.0865 19.5702 21.0865 23.015 18.7563L25.31 17.2773C29.5769 14.3251 32.2652 9.79746 32.8002 4.78952L33.2085 0.812437Z"/>
	</g>
	<defs>
		<clipPath id="clip_1">
			<rect x="-210" y="-215" width="320" height="570" clip-rule="evenodd"/>
		</clipPath>
	</defs>
	<g clip-path="url(#clip_1)">
		<path fill="rgb(0,113,206)" stroke="none" transform="translate(3.00977 35.6761)" d="M0.927862 0.0973676C1.07104 -0.0943421 1.25771 0.00577381 1.34479 0.320983C1.43187 0.636192 1.38639 1.04713 1.24321 1.23884C0.183066 2.65832 0.534432 7.59626 1.71258 9.91503C1.83752 10.1609 1.84825 10.5832 1.73656 10.8583C1.62487 11.1333 1.43304 11.1569 1.30811 10.911C-0.132188 8.07633 -0.558344 2.08731 0.927862 0.0973676Z"/>
	</g>
	<defs>
		<clipPath id="clip_2">
			<rect x="-210" y="-215" width="320" height="570" clip-rule="evenodd"/>
		</clipPath>
	</defs>
	<g clip-path="url(#clip_2)">
		<path fill="rgb(0,113,206)" stroke="none" transform="translate(41.9224 35.6761)" d="M0.513112 10.8866C0.390892 11.1395 0.198315 11.1273 0.0829793 10.8593C-0.0323563 10.5913 -0.0267756 10.169 0.0954443 9.91604C1.24807 7.5308 1.61748 2.63163 0.572152 1.23745C0.428575 1.04595 0.382972 0.635476 0.470296 0.320622C0.557619 0.00576732 0.744802 -0.094236 0.88838 0.0972581C2.36256 2.06342 1.91621 7.98306 0.513112 10.8866Z"/>
	</g>
	<defs>
		<clipPath id="clip_3">
			<rect x="-210" y="-215" width="320" height="570" clip-rule="evenodd"/>
		</clipPath>
	</defs>
	<g clip-path="url(#clip_3)">
		<path fill="rgb(0,113,206)" stroke="none" transform="translate(14.2915 35.1296)" d="M1.225 2.46228C1.90155 2.46228 2.45 1.91108 2.45 1.23114C2.45 0.551199 1.90155 0 1.225 0C0.548451 0 0 0.551199 0 1.23114C0 1.91108 0.548451 2.46228 1.225 2.46228Z"/>
	</g>
	<defs>
		<clipPath id="clip_4">
			<rect x="-210" y="-215" width="320" height="570" clip-rule="evenodd"/>
		</clipPath>
	</defs>
	<g clip-path="url(#clip_4)">
		<path fill="rgb(0,113,206)" stroke="none" transform="translate(31.5776 35.1296)" d="M1.225 2.46228C1.90155 2.46228 2.45 1.91108 2.45 1.23114C2.45 0.551199 1.90155 0 1.225 0C0.548451 0 0 0.551199 0 1.23114C0 1.91108 0.548451 2.46228 1.225 2.46228Z"/>
	</g>
	<defs>
		<clipPath id="clip_5">
			<rect x="-210" y="-215" width="320" height="570" clip-rule="evenodd"/>
		</clipPath>
	</defs>
	<g clip-path="url(#clip_5)">
		<path fill="rgb(0,113,206)" stroke="none" transform="translate(12.6582 36.6338)" d="M4.04427 1.43996C3.65809 1.38714 3.32542 1.36119 2.98324 1.36119C2.33598 1.36119 1.66082 1.44952 0.810968 1.62001C0.44379 1.69366 0.0866512 1.45457 0.0132757 1.08598C-0.0600999 0.717385 0.178074 0.358869 0.545251 0.285211C1.47509 0.0986784 2.22933 0 2.98324 0C3.39168 0 3.78415 0.0306187 4.22733 0.0912355C4.51859 0.131073 4.8098 0.179755 5.39978 0.281268C5.76911 0.343034 6.01864 0.693648 5.95713 1.06441C5.89563 1.43517 5.54637 1.68568 5.17695 1.62395C4.58044 1.52144 4.31233 1.47662 4.04427 1.43996Z"/>
	</g>
	<defs>
		<clipPath id="clip_6">
			<rect x="-210" y="-215" width="320" height="570" clip-rule="evenodd"/>
		</clipPath>
	</defs>
	<g clip-path="url(#clip_6)">
		<path fill="rgb(0,113,206)" stroke="none" transform="translate(29.9443 36.6338)" d="M4.04427 1.43996C3.65809 1.38714 3.32542 1.36119 2.98324 1.36119C2.33598 1.36119 1.66082 1.44952 0.810967 1.62001C0.44379 1.69366 0.0866512 1.45457 0.0132756 1.08598C-0.0600999 0.717385 0.178074 0.358869 0.545251 0.285211C1.47509 0.0986784 2.22933 0 2.98324 0C3.39168 0 3.78415 0.0306187 4.22733 0.0912355C4.51859 0.131073 4.80979 0.179755 5.39978 0.281268C5.7691 0.343034 6.01864 0.693648 5.95713 1.06441C5.89563 1.43517 5.54637 1.68568 5.17695 1.62395C4.58044 1.52144 4.31233 1.47662 4.04427 1.43996Z"/>
	</g>
	<defs>
		<clipPath id="clip_7">
			<rect x="-210" y="-215" width="320" height="570" clip-rule="evenodd"/>
		</clipPath>
	</defs>
	<g clip-path="url(#clip_7)">
		<path fill="rgb(0,113,206)" stroke="none" transform="translate(21.3564 33.7611)" d="M0.82806 0.629091C0.858315 0.25234 1.18508 -0.0282937 1.55791 0.0022787C1.93074 0.0328511 2.20846 0.363052 2.1782 0.739804L1.36352 10.8811C1.27621 11.6745 2.00985 12.4461 2.85771 12.4461L3.39955 12.4461C4.26284 12.4461 4.98411 11.6572 4.89295 10.7368C4.8557 10.3607 5.12723 10.0253 5.49943 9.98768C5.87163 9.95004 6.20355 10.2244 6.2408 10.6005C6.41242 12.3333 5.05786 13.815 3.39955 13.815L2.85771 13.815C1.22399 13.815 -0.161865 12.3574 0.0153112 10.7501L0.82806 0.629091Z"/>
	</g>
	<defs>
		<clipPath id="clip_8">
			<rect x="-210" y="-215" width="320" height="570" clip-rule="evenodd"/>
		</clipPath>
	</defs>
	<g clip-path="url(#clip_8)">
		<path fill="rgb(0,113,206)" stroke="none" transform="translate(20.5527 50.8603)" d="M0.189284 0.418787C-0.062949 0.323039 -0.063116 0.167737 0.188911 0.0719112C0.440939 -0.023915 0.849722 -0.0239785 1.10196 0.0717695C2.52848 0.61328 4.83159 0.61328 6.25811 0.0717695C6.51034 -0.0239785 6.91913 -0.023915 7.17115 0.0719112C7.42318 0.167737 7.42302 0.323039 7.17078 0.418787C5.24008 1.15168 2.11998 1.15168 0.189284 0.418787Z"/>
	</g>
	<defs>
		<clipPath id="clip_9">
			<rect x="-210" y="-215" width="320" height="570" clip-rule="evenodd"/>
		</clipPath>
	</defs>
	<g clip-path="url(#clip_9)">
		<path fill="rgb(0,113,206)" stroke="none" transform="translate(11.8418 30.7933)" d="M1.0508 2.69374C0.750566 2.90066 0.334923 2.83139 0.122433 2.53903C-0.0900574 2.24667 -0.0189292 1.84191 0.281302 1.63499C0.363034 1.57866 0.506205 1.48697 0.703175 1.37172C1.02639 1.18259 1.38755 0.994036 1.77939 0.817935C3.11773 0.216448 4.47961 -0.100757 5.78518 0.0286278C6.15842 0.0656172 6.52085 0.139627 6.87046 0.25302C7.21943 0.366203 7.40811 0.733442 7.29188 1.07327C7.17565 1.4131 6.79853 1.59683 6.44956 1.48365C6.19484 1.40103 5.92827 1.3466 5.65032 1.31905C4.62013 1.21696 3.47855 1.48285 2.33755 1.99565C1.99191 2.15099 1.67289 2.31754 1.38923 2.48353C1.22207 2.58134 1.10646 2.65537 1.0508 2.69374Z"/>
	</g>
	<defs>
		<clipPath id="clip_10">
			<rect x="-210" y="-215" width="320" height="570" clip-rule="evenodd"/>
		</clipPath>
	</defs>
	<g clip-path="url(#clip_10)">
		<path fill="rgb(0,113,206)" stroke="none" transform="translate(29.1274 28.8782)" d="M7.04489 1.63499C7.34512 1.84191 7.41625 2.24666 7.20376 2.53903C6.99126 2.83139 6.57562 2.90066 6.27539 2.69374C6.21972 2.65537 6.10412 2.58134 5.93696 2.48353C5.65329 2.31754 5.33427 2.15098 4.98864 1.99565C3.84764 1.48285 2.70605 1.21696 1.67587 1.31905C1.39792 1.3466 1.13134 1.40103 0.876628 1.48365C0.527655 1.59683 0.150535 1.4131 0.0343058 1.07327C-0.0819234 0.733442 0.106752 0.366203 0.455725 0.253019C0.80534 0.139627 1.16776 0.0656172 1.54101 0.0286277C2.84658 -0.100757 4.20845 0.216448 5.5468 0.817934C5.93864 0.994035 6.2998 1.18259 6.62301 1.37172C6.81998 1.48697 6.96315 1.57866 7.04489 1.63499Z"/>
	</g>
	<defs>
		<clipPath id="clip_11">
			<rect x="-210" y="-215" width="320" height="570" clip-rule="evenodd"/>
		</clipPath>
	</defs>
	<g clip-path="url(#clip_11)">
		<path fill="rgb(0,113,206)" stroke="none" transform="translate(0.29541 1.01514)" d="M13.1713 6.63668C13.1268 6.70032 14.1386 5.24519 14.4201 4.84929C17.0475 1.15381 18.9215 -0.330839 21.6287 0.0609879C23.1846 0.337018 23.8891 0.9782 24.8522 2.52109C24.8899 2.58139 24.8899 2.58139 24.9271 2.64101C25.5993 3.71587 26.0206 4.14735 26.9036 4.45906C27.5832 4.71741 28.3013 4.84687 29.0848 4.86555C30.142 4.89075 31.0584 4.75489 32.9081 4.36589C36.3164 3.6491 37.6543 3.58469 39.2799 4.48619C41.4122 5.58952 41.459 8.70429 39.8621 11.0054C38.8606 12.3378 39.0447 13.8245 40.3947 15.0912C43.9975 18.3596 44.844 23.0954 41.2915 26.9031C39.0359 29.285 38.1854 31.7211 37.7853 36.3059C37.7525 36.6815 37.4515 36.9565 37.113 36.9202C36.7745 36.8838 36.5267 36.5498 36.5594 36.1741C36.9856 31.2911 37.9409 28.5547 40.4392 25.9166C43.3846 22.7596 42.7039 18.9513 39.6074 16.1421C37.7522 14.4015 37.4629 12.0639 38.9012 10.1509C40.0637 8.47525 40.0322 6.3834 38.7445 5.7168C37.4406 4.99393 36.2673 5.05041 33.1374 5.70866C31.2052 6.115 30.2286 6.25979 29.0583 6.23189C28.1534 6.21032 27.3105 6.05834 26.5175 5.75672C25.3321 5.33851 24.7283 4.72015 23.9153 3.42021C23.8773 3.35937 23.8773 3.35937 23.8398 3.2993C23.0493 2.03286 22.591 1.61571 21.4519 1.41335C19.3347 1.10714 17.7655 2.35028 15.387 5.6958C15.1103 6.08487 14.1033 7.53319 14.1441 7.47489C11.8627 10.735 10.3321 12.3874 8.2253 13.3814C8.01692 13.4797 7.77673 13.4432 7.59987 13.2863C7.55253 13.2444 7.45624 13.1641 7.31932 13.0584C7.08793 12.8797 6.83199 12.7007 6.56038 12.5342C5.97128 12.1731 5.396 11.9246 4.88057 11.8371C4.12994 11.7096 3.58835 11.9247 3.20087 12.5856C2.78767 13.2729 2.82226 13.8123 3.23283 15.0281C3.25481 15.0931 3.25481 15.0931 3.27714 15.1589C3.95587 17.1583 3.9605 18.2428 2.76917 19.6371C0.704398 22.09 0.557917 25.176 3.35168 27.9533C4.09895 28.7156 4.75096 29.5957 5.31484 30.5698C6.01613 31.7813 6.54774 33.0749 6.93453 34.3683C7.07005 34.8214 7.178 35.2431 7.26125 35.623C7.31208 35.855 7.34379 36.0244 7.35919 36.1212C7.41833 36.4928 7.19479 36.8473 6.85989 36.9129C6.52498 36.9786 6.20554 36.7305 6.14639 36.3589C6.13542 36.2899 6.10901 36.1488 6.06456 35.9459C5.98901 35.6011 5.89022 35.2152 5.76566 34.7987C5.40936 33.6073 4.91979 32.4161 4.27864 31.3084C3.76949 30.4288 3.1842 29.6388 2.52408 28.9654C-0.822131 25.6389 -0.634121 21.6781 1.87231 18.7005C2.65714 17.7819 2.65467 17.202 2.12464 15.6406C2.1022 15.5745 2.1022 15.5745 2.07958 15.5077C1.54278 13.9181 1.48268 12.9809 2.17247 11.8337C2.84239 10.691 3.86985 10.2828 5.06691 10.4862C5.74698 10.6017 6.45037 10.9055 7.15587 11.3379C7.467 11.5287 7.75827 11.7324 8.02264 11.9365C9.7637 11.0673 11.1372 9.54351 13.1713 6.63668Z"/>
	</g>
	<defs>
		<clipPath id="clip_12">
			<rect x="-210" y="-215" width="320" height="570" clip-rule="evenodd"/>
		</clipPath>
	</defs>
	<g clip-path="url(#clip_12)">
		<path fill="rgb(0,113,206)" stroke="none" transform="translate(6.94141 18.2661)" d="M3.74231 14.0316C3.19919 15.3954 2.61715 16.6422 2.03444 17.7471C1.82983 18.1351 1.63945 18.478 1.46805 18.7729C1.36388 18.9521 1.28828 19.0769 1.24599 19.1441C1.04743 19.4595 0.63079 19.5542 0.315391 19.3556C-7.43129e-06 19.1571 -0.0947254 18.7404 0.103832 18.4249C0.137812 18.371 0.205202 18.2598 0.301233 18.0945C0.463493 17.8154 0.644896 17.4886 0.840677 17.1174C1.40194 16.0532 1.96387 14.8494 2.48846 13.5322C4.12386 9.42559 5.03759 5.16449 4.85944 1.01055C4.84591 0.695208 5.05273 0.412607 5.35737 0.330159C5.51493 0.287515 5.79273 0.227911 6.17664 0.169675C9.64271 -0.356096 13.6242 0.276113 17.4024 2.96899C17.7816 3.23928 18.1545 3.52867 18.5172 3.83474C19.0254 4.25794 19.5501 4.63695 20.09 4.9736C23.1749 6.89718 26.4322 7.32961 29.273 6.92126C29.4638 6.89384 29.6313 6.86467 29.7737 6.8358C29.8554 6.81923 29.9083 6.80709 29.9304 6.80144C30.3571 6.69258 30.772 7.01499 30.772 7.4554C30.772 7.55074 30.7767 7.73929 30.7909 8.00754C30.8149 8.45992 30.8581 8.96533 30.9254 9.51018C31.1175 11.065 31.463 12.6186 31.9976 14.061C32.6349 15.7805 33.4997 17.2217 34.615 18.2991C34.8831 18.558 34.8905 18.9853 34.6315 19.2534C34.3726 19.5215 33.9454 19.5289 33.6773 19.2699C32.4019 18.0379 31.4348 16.4262 30.732 14.5301C30.1575 12.9799 29.79 11.3271 29.5859 9.6757C29.5234 9.16917 29.4804 8.69398 29.4535 8.259C26.3268 8.70601 22.7627 8.23079 19.376 6.11902C18.784 5.74989 18.2093 5.33478 17.6502 4.86921C17.3122 4.58402 16.9684 4.31718 16.6191 4.06822C13.1617 1.60395 9.52664 1.02675 6.37903 1.50422C6.32623 1.51223 6.2752 1.52037 6.22596 1.52861C6.31004 5.71004 5.36802 9.94938 3.74231 14.0316Z"/>
	</g>
	<defs>
		<clipPath id="clip_13">
			<rect x="-210" y="-215" width="320" height="570" clip-rule="evenodd"/>
		</clipPath>
	</defs>
	<g clip-path="url(#clip_13)">
		<path fill="rgb(0,113,206)" stroke="none" transform="translate(22.7305 55.9216)" d="M0.680556 1.36905C0.304695 1.36905 0 1.06258 0 0.684524C0 0.306472 0.304695 0 0.680556 0L2.58611 0C2.96197 0 3.26667 0.306472 3.26667 0.684524C3.26667 1.06258 2.96197 1.36905 2.58611 1.36905L0.680556 1.36905Z"/>
	</g>
	<defs>
		<clipPath id="clip_14">
			<rect x="-210" y="-215" width="320" height="570" clip-rule="evenodd"/>
		</clipPath>
	</defs>
	<g clip-path="url(#clip_14)">
		<path fill="rgb(0,113,206)" stroke="none" transform="translate(11.5693 56.8792)" d="M0.132937 0.72232C0.112719 0.344968 0.391105 0.0220553 0.754729 0.00107419C1.11835 -0.0199069 1.42952 0.268989 1.44974 0.64634C1.45256 0.698961 1.45738 0.798269 1.46355 0.940686C1.47376 1.1767 1.48396 1.44865 1.49347 1.75296C1.5817 4.5759 1.55118 7.66828 1.31659 10.5872C1.28632 10.9639 0.967573 11.2437 0.604647 11.2123C0.241722 11.1809 -0.0279503 10.8501 0.00231818 10.4735C0.232012 7.61544 0.26205 4.57199 0.175331 1.79733C0.166001 1.49882 0.156014 1.23254 0.146041 1.00209C0.140093 0.864624 0.135501 0.770169 0.132937 0.72232Z"/>
	</g>
	<defs>
		<clipPath id="clip_15">
			<rect x="-210" y="-215" width="320" height="570" clip-rule="evenodd"/>
		</clipPath>
	</defs>
	<g clip-path="url(#clip_15)">
		<path fill="rgb(0,113,206)" stroke="none" transform="translate(35.8423 56.8792)" d="M0.0892199 0.64634C0.109438 0.268989 0.420602 -0.0199069 0.784225 0.00107419C1.14785 0.0220553 1.42623 0.344968 1.40601 0.72232C1.40345 0.770169 1.39886 0.864624 1.39291 1.00209C1.38294 1.23254 1.37295 1.49882 1.36362 1.79733C1.2769 4.57199 1.30694 7.61544 1.53663 10.4735C1.5669 10.8501 1.29723 11.1809 0.934306 11.2123C0.571382 11.2437 0.252636 10.9639 0.222367 10.5872C-0.0122212 7.66828 -0.0427419 4.5759 0.0454858 1.75296C0.0549966 1.44865 0.065196 1.1767 0.0754095 0.940686C0.0815726 0.798269 0.0864007 0.698961 0.0892199 0.64634Z"/>
	</g>
</svg>
