<?xml version="1.0" encoding="UTF-8"?>
<svg width="27px" height="27px" viewBox="0 0 27 27" version="1.1" xmlns="http://www.w3.org/2000/svg" xmlns:xlink="http://www.w3.org/1999/xlink">
    <!-- Generator: Sketch 52.4 (67378) - http://www.bohemiancoding.com/sketch -->
    <title>Info</title>
    <desc>Created with Sketch.</desc>
    <g id="UI" stroke="none" stroke-width="1" fill="none" fill-rule="evenodd">
        <g id="Info" transform="translate(1.000000, 1.000000)" stroke="#0071CE">
            <path d="M12.5,8.33333333 C11.9270833,8.33333333 11.4583333,7.86458333 11.4583333,7.29166667 C11.4583333,6.71875 11.9270833,6.25 12.5,6.25 C13.0729167,6.25 13.5416667,6.71875 13.5416667,7.29166667 C13.5416667,7.86458333 13.0729167,8.33333333 12.5,8.33333333 Z M13.5416667,17.7083333 C13.5416667,18.28125 13.0729167,18.75 12.5,18.75 C11.9270833,18.75 11.4583333,18.28125 11.4583333,17.7083333 L11.4583333,10.9375 C11.4583333,10.3645833 11.9270833,9.89583333 12.5,9.89583333 C13.0729167,9.89583333 13.5416667,10.3645833 13.5416667,10.9375 L13.5416667,17.7083333 Z M12.5,0 C5.59895833,0 0,5.59895833 0,12.5 C0,19.4010417 5.59895833,25 12.5,25 C19.4010417,25 25,19.4010417 25,12.5 C25,5.59895833 19.4010417,0 12.5,0 Z" id="Fill-14"></path>
        </g>
    </g>
</svg>